<svg width="20" height="20" viewBox="0 0 20 20" fill="none" xmlns="http://www.w3.org/2000/svg">
<path d="M10.0031 15.3749C9.16836 15.3749 8.37793 15.2737 7.63177 15.0713C6.8856 14.869 6.19424 14.6013 5.55768 14.2683C4.92112 13.9352 4.34779 13.5685 3.8377 13.168C3.33182 12.7675 2.89761 12.3649 2.53507 11.9602C2.17674 11.5555 1.90273 11.1824 1.71302 10.8409C1.52332 10.4953 1.42847 10.2149 1.42847 9.99993C1.42847 9.78493 1.52332 9.5067 1.71302 9.16523C1.90273 8.81955 2.17674 8.44436 2.53507 8.03966C2.89761 7.63496 3.33182 7.23237 3.8377 6.83188C4.34779 6.4314 4.92112 6.06464 5.55768 5.7316C6.19424 5.39857 6.8856 5.13088 7.63177 4.92853C8.37793 4.72618 9.16836 4.625 10.0031 4.625C10.8462 4.625 11.6408 4.72618 12.387 4.92853C13.1374 5.13088 13.8308 5.39857 14.4674 5.7316C15.104 6.06464 15.6752 6.4314 16.1811 6.83188C16.6869 7.23237 17.1169 7.63496 17.471 8.03966C17.8294 8.44436 18.1013 8.81955 18.2868 9.16523C18.4765 9.5067 18.5713 9.78493 18.5713 9.99993C18.5713 10.2149 18.4765 10.4953 18.2868 10.8409C18.1013 11.1824 17.8294 11.5555 17.471 11.9602C17.1169 12.3649 16.6869 12.7675 16.1811 13.168C15.6794 13.5685 15.1103 13.9352 14.4737 14.2683C13.8372 14.6013 13.1437 14.869 12.3933 15.0713C11.6429 15.2737 10.8462 15.3749 10.0031 15.3749ZM10.0031 13.5221C10.4921 13.5221 10.9495 13.4314 11.3752 13.2502C11.8052 13.0647 12.1804 12.8096 12.5008 12.485C12.8254 12.1562 13.0784 11.781 13.2596 11.3595C13.4451 10.9337 13.5379 10.4805 13.5379 9.99993C13.5379 9.5067 13.4451 9.04719 13.2596 8.62142C13.0784 8.19564 12.8254 7.82255 12.5008 7.50217C12.1804 7.17756 11.8052 6.92673 11.3752 6.74968C10.9495 6.56841 10.4921 6.47777 10.0031 6.47777C9.50983 6.47777 9.04822 6.56841 8.61822 6.74968C8.18823 6.92673 7.81093 7.17756 7.48633 7.50217C7.16594 7.82255 6.913 8.19564 6.72751 8.62142C6.54624 9.04719 6.45771 9.5067 6.46193 9.99993C6.46614 10.4805 6.55889 10.9337 6.74016 11.3595C6.92143 11.781 7.17226 12.1562 7.49265 12.485C7.81725 12.8096 8.19244 13.0647 8.61822 13.2502C9.04822 13.4314 9.50983 13.5221 10.0031 13.5221ZM10.0031 11.2709C9.64894 11.2709 9.34542 11.1466 9.09248 10.8979C8.83954 10.6449 8.71307 10.3456 8.71307 9.99993C8.71307 9.65003 8.83954 9.35072 9.09248 9.102C9.34542 8.84906 9.64894 8.72259 10.0031 8.72259C10.353 8.72259 10.6544 8.84906 10.9073 9.102C11.1602 9.35072 11.2867 9.65003 11.2867 9.99993C11.2867 10.3456 11.1602 10.6449 10.9073 10.8979C10.6544 11.1466 10.353 11.2709 10.0031 11.2709Z" fill="black"/>
</svg>
